<svg width="10" height="10" viewBox="0 0 10 10" fill="none" xmlns="http://www.w3.org/2000/svg">
<path d="M8.96929 3.65488C9.23234 3.39068 9.23234 2.96234 8.96929 2.69815C8.70621 2.43395 8.27967 2.43395 8.01659 2.69815L4.99988 5.72771L1.98324 2.69822C1.72016 2.43403 1.29364 2.43403 1.03056 2.69822C0.767482 2.96241 0.767482 3.39076 1.03056 3.65495L4.51375 7.15296C4.51692 7.15629 4.52017 7.15958 4.52346 7.16288C4.60975 7.24958 4.71367 7.30783 4.82367 7.33763C4.82634 7.33838 4.82904 7.33908 4.83175 7.33975C5.05492 7.39733 5.30167 7.33842 5.47638 7.16296C5.48071 7.15863 5.48496 7.15425 5.48917 7.14983L8.96929 3.65488Z" fill="#0D0C22"/>
</svg>
